<?xml version="1.0" standalone="no"?>
<!DOCTYPE svg PUBLIC "-//W3C//DTD SVG 20010904//EN"
 "http://www.w3.org/TR/2001/REC-SVG-20010904/DTD/svg10.dtd">
<svg version="1.0" xmlns="http://www.w3.org/2000/svg"
 width="810.000000pt" height="900.000000pt" viewBox="0 0 810.000000 900.000000"
 preserveAspectRatio="xMidYMid meet">
<metadata>
Created by potrace 1.10, written by Peter Selinger 2001-2011
</metadata>
<g transform="translate(0.000000,900.000000) scale(0.100000,-0.100000)"
fill="#000000" stroke="none">
<path d="M3885 7991 c-101 -18 -265 -152 -334 -273 -51 -91 -83 -222 -84 -353
l-2 -110 -33 2 c-18 0 -47 12 -65 25 -51 39 -183 98 -245 110 -31 5 -107 8
-169 5 -107 -4 -116 -6 -202 -47 -97 -46 -154 -97 -209 -185 -44 -72 -55 -128
-50 -258 4 -104 7 -117 40 -182 74 -146 187 -259 326 -325 77 -38 97 -64 66
-88 -11 -7 -53 -32 -94 -55 -112 -61 -232 -186 -290 -301 l-45 -89 0 -136 c0
-131 1 -138 30 -195 41 -81 105 -149 184 -196 183 -109 477 -89 656 45 17 12
40 25 53 29 42 14 51 -6 50 -122 -1 -258 121 -473 327 -577 77 -39 80 -40 184
-40 63 0 122 6 145 14 69 24 155 82 209 141 117 128 169 264 172 450 1 64 5
121 9 128 12 20 34 14 109 -32 111 -67 133 -76 214 -92 159 -30 323 -10 426
53 176 108 247 259 219 469 -22 169 -148 337 -334 448 -141 84 -143 88 -50
134 97 48 144 82 218 158 128 132 186 282 169 446 -8 86 -19 119 -64 189 -44
68 -96 114 -181 161 -100 55 -253 73 -395 47 -59 -11 -180 -66 -251 -114 -22
-15 -49 -25 -64 -23 l-25 3 0 120 c0 102 -4 133 -27 208 -49 160 -143 280
-286 364 -68 41 -75 43 -169 47 -54 3 -116 2 -138 -3z m297 -1239 c103 -50
171 -118 221 -221 42 -85 42 -87 42 -196 0 -109 -1 -111 -41 -195 -66 -135
-162 -216 -296 -251 -93 -24 -146 -24 -241 1 -140 35 -244 128 -310 275 -28
63 -31 80 -31 170 0 95 1 104 36 177 47 100 97 159 178 211 89 56 134 67 265
64 102 -2 115 -4 177 -35z"/>
<path d="M6490 5611 c-19 -10 -66 -35 -105 -54 -38 -20 -107 -58 -153 -86 -46
-28 -86 -51 -88 -51 -15 0 -296 -199 -409 -288 -363 -288 -608 -570 -892
-1022 -35 -56 -66 -113 -156 -285 -84 -163 -206 -455 -277 -665 -12 -36 -33
-94 -46 -130 -13 -36 -31 -96 -40 -133 -24 -97 -96 -208 -119 -185 -4 4 -6
388 -5 855 0 595 -3 857 -10 880 -17 48 -47 55 -218 51 -131 -3 -153 -5 -171
-22 l-21 -19 0 -1221 c0 -689 -4 -1227 -9 -1235 -23 -36 -69 24 -102 134 -12
39 -33 106 -49 150 -15 44 -39 114 -53 155 -65 194 -136 371 -250 620 -77 171
-253 466 -396 665 -195 273 -556 630 -826 817 -147 102 -186 128 -255 167 -41
24 -86 52 -100 61 -68 47 -302 161 -322 158 -20 -3 -23 -9 -22 -43 0 -22 13
-69 28 -105 15 -36 40 -96 56 -135 65 -162 82 -203 106 -250 13 -28 24 -54 24
-59 0 -5 13 -39 29 -75 16 -36 48 -109 71 -161 466 -1057 917 -1607 1741
-2125 61 -38 128 -84 148 -101 20 -17 62 -44 95 -59 83 -39 88 -55 83 -264 -2
-101 -9 -183 -18 -209 -12 -38 -11 -44 4 -60 16 -15 40 -17 211 -17 145 0 197
3 209 13 14 12 16 76 17 588 0 400 4 580 12 593 6 9 25 27 42 38 17 11 84 56
150 99 65 44 139 93 165 109 342 221 647 476 865 725 176 200 290 357 437 600
95 157 96 159 233 435 103 209 136 281 227 488 16 37 42 97 59 135 33 75 70
167 105 257 13 33 40 100 60 149 20 48 35 98 33 110 -4 29 -52 32 -98 7z"/>
</g>
</svg>
