<svg xmlns="http://www.w3.org/2000/svg" xmlns:xlink="http://www.w3.org/1999/xlink" id="eZKuGQaTN4E1" shape-rendering="geometricPrecision" text-rendering="geometricPrecision" viewBox="0 0 808.841 681.894"><g id="eZKuGQaTN4E2" transform="matrix(0.939693 -0.34202 0.34202 0.939693 -223.030332 227.142977)"><path id="eZKuGQaTN4E3" fill="#010101" stroke="none" stroke-width="1" d="M866.24553,659.31387L597.90045,536.80922L736.07526,234.13885L1004.42033,356.64351Z" transform="matrix(1 0 0 1 -196.579666 -109.0532)"/><path id="eZKuGQaTN4E4" fill="#FFF" stroke="none" stroke-width="1" d="M918.41962,458.73405L715.275,365.99465C714.478211,365.630901,714.127161,364.690099,714.49091,363.89331C714.854659,363.096521,715.795461,362.745471,716.59225,363.10922L919.73687,455.84862C920.533659,456.212369,920.884709,457.153171,920.52096,457.94996C920.157211,458.746749,919.216409,459.097799,918.41962,458.73405Z" transform="matrix(1 0 0 1 -195.579666 -109.0532)"/><path id="eZKuGQaTN4E5" fill="#FFF" stroke="none" stroke-width="1" d="M929.71583,433.98984L726.57121,341.25043C725.774421,340.886681,725.423371,339.945879,725.78712,339.14909C726.150869,338.352301,727.091671,338.001251,727.88846,338.365L931.03308,431.1044C931.82807,431.469196,932.177621,432.408767,931.814372,433.204465C931.451123,434.000164,930.512233,434.351541,929.71583,433.98984Z" transform="matrix(1 0 0 1 -195.579666 -109.0532)"/><path id="eZKuGQaTN4E6" fill="#FFF" stroke="none" stroke-width="1" d="M941.012,409.24562L737.86742,316.50621C737.070631,316.142461,736.719581,315.201659,737.08333,314.40487C737.447079,313.608081,738.387881,313.257031,739.18467,313.62078L942.32929,406.36019C943.126079,406.723939,943.477129,407.664741,943.11338,408.46153C942.749631,409.258319,941.808829,409.609369,941.01204,409.24562Z" transform="matrix(1 0 0 1 -195.579666 -109.0532)"/><path id="eZKuGQaTN4E7" fill="#FFF" stroke="none" stroke-width="1" d="M930.83742,372.9484L772.15573,300.50717C770.307276,299.71102,769.348546,297.656287,769.92591,295.72826C770.271038,294.70455,771.033907,293.875099,772.02523,293.445713C773.016554,293.016328,774.143425,293.02725,775.12624,293.47577L933.75967,365.895C935.642784,366.695579,936.61826,368.788088,936.02067,370.74511C935.664676,371.755482,934.900363,372.569675,933.914484,372.988752C932.928604,373.407828,931.811971,373.393185,930.83742,372.9484Z" transform="matrix(1 0 0 1 -195.579666 -109.0532)"/><path id="eZKuGQaTN4E8" fill="#FFF" stroke="none" stroke-width="1" d="M907.12341,483.47827L703.97879,390.73887C703.182001,390.375121,702.830951,389.434319,703.1947,388.63753C703.558449,387.840741,704.499251,387.489691,705.29604,387.85344L908.44066,480.59284C909.237449,480.956589,909.588499,481.897391,909.22475,482.69418C908.861001,483.490969,907.920199,483.842019,907.12341,483.47827Z" transform="matrix(1 0 0 1 -195.579666 -109.0532)"/><path id="eZKuGQaTN4E9" fill="#FFF" stroke="none" stroke-width="1" d="M896.91469,505.84036L693.77007,413.101C692.973281,412.737251,692.622231,411.796449,692.98598,410.99966C693.349729,410.202871,694.290531,409.851821,695.08732,410.21557L898.23194,502.95497C899.028729,503.318719,899.379779,504.259521,899.01603,505.05631C898.652281,505.853099,897.711479,506.204149,896.91469,505.8404Z" transform="matrix(1 0 0 1 -195.579666 -109.0532)"/></g><g id="eZKuGQaTN4E10" transform="matrix(0.906308 0.422618 -0.422618 0.906308 281.712995 -103.132704)"><path id="eZKuGQaTN4E11" fill="#000" stroke="none" stroke-width="1" d="M320.27065,356.64351L588.61572,234.13885L726.79053,536.80922L458.44546,659.31387Z" transform="matrix(1 0 0 1 -196.579666 -106.792064)"/><path id="eZKuGQaTN4E12" fill="#FFF" stroke="none" stroke-width="1" d="M417.56758,483.47827L620.71219,390.73887C621.508979,390.375121,621.860029,389.434319,621.49628,388.63753C621.132531,387.840741,620.191729,387.489691,619.39494,387.85344L416.25032,480.59284C415.453531,480.956591,415.102484,481.897396,415.466235,482.694185C415.829986,483.490974,416.770791,483.842021,417.56758,483.47827Z" transform="matrix(1 0 0 1 -195.579666 -109.0532)"/><path id="eZKuGQaTN4E13" fill="#FFF" stroke="none" stroke-width="1" d="M406.27137,458.73405L609.416,365.99465C610.212789,365.630899,610.563836,364.690094,610.200085,363.893305C609.836334,363.096516,608.895529,362.745469,608.09874,363.10922L404.95412,455.84862C404.157331,456.212371,403.806284,457.153176,404.170035,457.949965C404.533786,458.746754,405.474591,459.097801,406.27138,458.73405Z" transform="matrix(1 0 0 1 -195.579666 -109.0532)"/><path id="eZKuGQaTN4E14" fill="#FFF" stroke="none" stroke-width="1" d="M394.97516,433.98984L598.11978,341.25043C598.916569,340.886679,599.267616,339.945874,598.903865,339.149085C598.540114,338.352296,597.599309,338.001249,596.80252,338.365L393.6579,431.1044C392.862108,431.468733,392.511891,432.408855,392.875366,433.20504C393.23884,434.001225,394.178583,434.352455,394.97516,433.98984Z" transform="matrix(1 0 0 1 -195.579666 -109.0532)"/><path id="eZKuGQaTN4E15" fill="#FFF" stroke="none" stroke-width="1" d="M383.679,409.24562L586.82362,316.50621C587.339052,316.270904,587.689797,315.778493,587.743733,315.214462C587.797668,314.650432,587.5466,314.100472,587.085103,313.771747C586.623606,313.443023,586.021792,313.385474,585.50636,313.62078L382.36169,406.36019C381.564901,406.723941,381.213854,407.664746,381.577605,408.461535C381.941356,409.258324,382.882161,409.609371,383.67895,409.24562Z" transform="matrix(1 0 0 1 -195.579666 -109.0532)"/><path id="eZKuGQaTN4E16" fill="#FFF" stroke="none" stroke-width="1" d="M393.85356,372.9484L552.53525,300.50717C554.383711,299.711027,555.342444,297.656288,554.76507,295.72826C554.419942,294.704553,553.657075,293.875104,552.665754,293.445718C551.674432,293.016333,550.547563,293.027253,549.56475,293.47577L390.93131,365.895C389.048203,366.695587,388.07273,368.788089,388.67031,370.74511C389.026304,371.755482,389.790617,372.569675,390.776496,372.988752C391.762376,373.407828,392.879009,373.393185,393.85356,372.9484Z" transform="matrix(1 0 0 1 -195.579666 -109.0532)"/><path id="eZKuGQaTN4E17" fill="#FFF" stroke="none" stroke-width="1" d="M406.27137,458.73405L609.416,365.99465C610.212789,365.630899,610.563836,364.690094,610.200085,363.893305C609.836334,363.096516,608.895529,362.745469,608.09874,363.10922L404.95412,455.84862C404.157331,456.212371,403.806284,457.153176,404.170035,457.949965C404.533786,458.746754,405.474591,459.097801,406.27138,458.73405Z" transform="matrix(1 0 0 1 -195.579666 -109.0532)"/><path id="eZKuGQaTN4E18" fill="#FFF" stroke="none" stroke-width="1" d="M427.7763,505.84036L630.92092,413.101C631.717709,412.737249,632.068756,411.796444,631.705005,410.999655C631.341254,410.202866,630.400449,409.851819,629.60366,410.21557L426.459,502.95493C425.662211,503.318681,425.311164,504.259486,425.674915,505.056275C426.038666,505.853064,426.979471,506.204111,427.77626,505.84036Z" transform="matrix(1 0 0 1 -195.579666 -109.0532)"/><path id="eZKuGQaTN4E19" fill="#FFF" stroke="none" stroke-width="1" d="M417.56758,483.47827L620.71219,390.73887C621.508979,390.375121,621.860029,389.434319,621.49628,388.63753C621.132531,387.840741,620.191729,387.489691,619.39494,387.85344L416.25032,480.59284C415.453531,480.956591,415.102484,481.897396,415.466235,482.694185C415.829986,483.490974,416.770791,483.842021,417.56758,483.47827Z" transform="matrix(1 0 0 1 -195.579666 -109.0532)"/></g><g id="eZKuGQaTN4E20" transform="matrix(1 0 0 1 -13.000844 1.709396)"><g id="eZKuGQaTN4E21" transform="matrix(1 0 0 1 0 0.000001)"><path id="eZKuGQaTN4E22" fill="#36B447" stroke="none" stroke-width="1" d="M222.40481,714.03126C224.09904,687.78697,238.72181,661.16026,263.06464,651.20812C254.857027,678.604322,256.604368,708.020679,267.99751,734.25259C272.42804,744.35321,278.40757,755.12622,275.43388,765.74746C273.58371,772.35628,268.41153,777.63546,262.48529,781.09615C256.55868,784.55684,249.86499,786.43581,243.25442,788.2802L242.00119,789.44836C229.9466,766.07489,220.71058,740.27555,222.40481,714.03126Z" transform="matrix(1 0 0 1 -194.163792 -106.762561)"/><path id="eZKuGQaTN4E23" fill="#FFF" stroke="none" stroke-width="1" d="M263.34042,651.68609C249.833232,668.756612,242.048168,689.64912,241.091,711.39609C240.801829,716.07406,241.251842,720.768373,242.42447,725.30621C243.709593,729.68973,246.145116,733.649141,249.47798,736.77305C252.52704,739.74823,255.99042,742.43841,258.26316,746.10296C260.559856,749.931882,261.113247,754.558997,259.78427,758.82154C258.28369,764.11528,254.97048,768.55413,251.57958,772.78236C247.81464,777.477,243.82966,782.29362,242.46735,788.30217C242.30229,789.03017,241.1823,788.7315,241.34711,788.00458C243.71729,777.55073,253.34726,771.12129,257.55578,761.58258C259.51955,757.13166,260.15388,752.06197,257.80214,747.62608C255.74566,743.74708,252.17655,740.96988,249.06328,737.98413C245.767301,734.984326,243.255989,731.223096,241.74872,727.029C240.348837,722.565517,239.718726,717.896358,239.88537,713.22147C240.092668,702.690799,241.954439,692.258207,245.40248,682.30587C249.274707,670.92552,255.065163,660.291427,262.52332,650.86368C262.98517,650.28035,263.79925,651.10653,263.34042,651.68604Z" transform="matrix(1 0 0 1 -194.163792 -106.762561)"/><path id="eZKuGQaTN4E24" fill="#FFF" stroke="none" stroke-width="1" d="M240.987,704.37553C233.496189,703.020833,228.089766,696.438805,228.216,688.82753C228.224005,688.515173,228.477991,688.265287,228.790436,688.262365C229.102882,688.259444,229.361496,688.504538,229.37534,688.81669C229.244677,695.906686,234.299208,702.034715,241.28458,703.25525C242.01913,703.38449,241.71734,704.50399,240.98699,704.37548Z" transform="matrix(1 0 0 1 -194.163792 -106.762561)"/><path id="eZKuGQaTN4E25" fill="#FFF" stroke="none" stroke-width="1" d="M247.73331,735.46815C253.9621,731.229294,258.364372,724.798466,260.06231,717.45798C260.22995,716.73057,261.34998,717.02904,261.18255,717.75557C259.401376,725.390958,254.806526,732.073913,248.315,736.47071C247.696,736.88936,247.11764,735.88453,247.7333,735.46815Z" transform="matrix(1 0 0 1 -194.163792 -106.762561)"/><path id="eZKuGQaTN4E26" fill="#FFF" stroke="none" stroke-width="1" d="M250.4132,671.958C253.156383,673.06753,256.273628,672.723317,258.70864,671.042C259.32205,670.61571,259.89976,671.621,259.29034,672.04455C256.592584,673.88882,253.156105,674.276002,250.11561,673.07825C249.812992,672.987408,249.632969,672.677134,249.70429,672.36933C249.787849,672.061045,250.10409,671.877558,250.4132,671.95801Z" transform="matrix(1 0 0 1 -194.163792 -106.762561)"/></g><g id="eZKuGQaTN4E27"><path id="eZKuGQaTN4E28" fill="#36B447" stroke="none" stroke-width="1" d="M341.5588,693.24718C341.18335,693.52426,340.80789,693.80134,340.43254,694.08818C335.404117,697.839438,330.68876,701.99301,326.333,706.50791C325.99069,706.85163,325.649,707.20512,325.31724,707.55791C314.939156,718.54716,306.691504,731.367675,300.99355,745.36773C298.731317,750.940762,296.896355,756.677828,295.50455,762.52926C293.58287,770.61043,292.14226,779.52538,287.79126,786.30034C287.345244,787.012266,286.855563,787.695885,286.32503,788.34727L243.52351,790.8866C243.42334,790.84355,243.32327,790.81025,243.22263,790.76724L241.51833,790.94676C241.56904,790.63997,241.62822,790.32286,241.67892,790.01606C241.70759,789.83797,241.7458,789.65932,241.77447,789.48123C241.79661,789.36232,241.81921,789.24333,241.83239,789.13477C241.83961,789.09516,241.84731,789.05553,241.8551,789.02564C241.86828,788.91707,241.8921,788.81764,241.90581,788.71884Q242.39468,786.05865,242.92264,783.39608C242.92206,783.3863,242.92206,783.3863,242.93102,783.37596C245.64744,769.85781,249.51627,756.44766,255.29751,744.05105C255.47157,743.67814,255.64458,743.29549,255.83819,742.92142C258.475111,737.348064,261.563137,731.999549,265.07143,726.92929C267.001391,724.159155,269.070348,721.488497,271.27036,718.92757C276.967583,712.321454,283.668442,706.652579,291.12728,702.12877C305.99772,693.11277,323.5861,688.95302,340.28588,692.93071C340.713,693.03281,341.13108,693.13535,341.5588,693.24718Z" transform="matrix(0.999961 -0.008807 0.008807 0.999961 -187.356966 -115.168933)"/><path id="eZKuGQaTN4E29" fill="#FFF" stroke="none" stroke-width="1" d="M341.49481,693.79613C320.43244,699.293734,301.637767,711.28809,287.78034,728.07555C284.732998,731.636548,282.266007,735.655632,280.47019,739.98484C278.857109,744.258572,278.417898,748.886296,279.19819,753.38718C279.84143,757.59843,280.98707,761.83159,280.59542,766.12587C280.123924,770.565819,277.779936,774.593489,274.15248,777.19676C269.76715,780.52006,264.44924,782.06945,259.19611,783.4039C253.36352,784.88555,247.2818,786.33212,242.57651,790.30941C242.0064,790.79131,241.29198,789.87851,241.86123,789.39734C250.04762,782.47754,261.60759,783.1419,270.71079,778.05962C274.95851,775.68813,278.51729,772.02217,279.31028,767.06445C280.00371,762.72914,278.82605,758.36286,278.13791,754.1045C277.312341,749.724918,277.571717,745.209802,278.89338,740.95357C280.462982,736.546906,282.77103,732.439476,285.71869,728.80717C292.224398,720.523826,299.992059,713.314898,308.73712,707.44447C318.680635,700.689251,329.706447,695.684777,341.33752,692.64757C342.05752,692.45988,342.21007,693.60967,341.49481,693.79613Z" transform="matrix(0.999961 -0.008807 0.008807 0.999961 -194.163792 -106.762561)"/></g><path id="eZKuGQaTN4E30" fill="#FFF" stroke="none" stroke-width="1" d="M291.92419,722.40742C286.758833,716.8158,286.404925,708.305409,291.08819,702.30423C291.54902,701.71788,292.48182,702.40645,292.02038,702.99357C287.647391,708.57587,287.993655,716.511931,292.83623,721.69214C293.34493,722.23758,292.42995,722.94974,291.92416,722.40742Z" transform="matrix(1 0 0 1 -194.163792 -97.762561)"/></g><path id="eZKuGQaTN4E31" fill="#FFF" stroke="none" stroke-width="1" d="M278.59082,751.29486C286.116242,751.660529,293.503011,749.176347,299.2782,744.33766C299.85,743.85779,300.56459,744.77044,299.99348,745.24973C293.974283,750.273764,286.28196,752.843313,278.45167,752.44557C277.70535,752.40714,277.84856,751.25664,278.59082,751.29486Z" transform="matrix(1 0 0 1 -194.163792 -110.762561)"/><path id="eZKuGQaTN4E32" fill="#FFF" stroke="none" stroke-width="1" d="M318.96807,702.199C320.490347,704.736468,323.186536,706.338411,326.14302,706.462C326.88945,706.491,326.74544,707.64147,326.00387,707.61271C322.739484,707.461022,319.762536,705.701167,318.056,702.91424C317.869073,702.659512,317.912139,702.303395,318.1544,702.10057C318.406721,701.904716,318.769705,701.948608,318.96807,702.19896Z" transform="matrix(1 0 0 1 -195.579666 -109.0532)"/><path id="eZKuGQaTN4E33" fill="#FFF" stroke="none" stroke-width="1" d="M861.997,661.85822L460.74089,661.85822L460.74089,209.2756L861.997,209.2756Z" transform="matrix(1 0 0 1 -197.06639 -110.356201)"/><path id="eZKuGQaTN4E34" fill="#CACACA" stroke="none" stroke-width="1" d="M861.997,661.85822L460.74089,661.85822L460.74089,209.2756L861.997,209.2756ZM462.89823,659.70093L859.83966,659.70093L859.83966,211.43293L462.89818,211.43293Z" transform="matrix(1 0 0 1 -195.579666 -109.0532)"/><g id="eZKuGQaTN4E35" opacity=".04" transform="matrix(1 0 0 1 0.000001 0)"><path id="eZKuGQaTN4E36" fill="#010101" stroke="none" stroke-width="1" d="M813.24987,421.18544L509.488,421.18544C508.717274,421.18544,508.005095,420.774263,507.619732,420.106795C507.234369,419.439327,507.234369,418.616973,507.619732,417.949505C508.005095,417.282037,508.717274,416.87086,509.488,416.87086L813.2499,416.87086C814.441338,416.87086,815.40719,417.836712,815.40719,419.02815C815.40719,420.219588,814.441338,421.18544,813.2499,421.18544Z" transform="matrix(1 0 0 1 -195.579666 -109.0532)"/><path id="eZKuGQaTN4E37" fill="#010101" stroke="none" stroke-width="1" d="M813.24987,384.18544L509.488,384.18544C508.717274,384.18544,508.005095,383.774263,507.619732,383.106795C507.234369,382.439327,507.234369,381.616973,507.619732,380.949505C508.005095,380.282037,508.717274,379.87086,509.488,379.87086L813.2499,379.87086C814.441338,379.87086,815.40719,380.836712,815.40719,382.02815C815.40719,383.219588,814.441338,384.18544,813.2499,384.18544Z" transform="matrix(1 0 0 1 -195.579666 -109.0532)"/><path id="eZKuGQaTN4E38" fill="#010101" stroke="none" stroke-width="1" d="M813.24987,347.18544L509.488,347.18544C508.717274,347.18544,508.005095,346.774263,507.619732,346.106795C507.234369,345.439327,507.234369,344.616973,507.619732,343.949505C508.005095,343.282037,508.717274,342.87086,509.488,342.87086L813.2499,342.87086C814.441338,342.87086,815.40719,343.836712,815.40719,345.02815C815.40719,346.219588,814.441338,347.18544,813.2499,347.18544Z" transform="matrix(1 0 0 1 -195.579666 -109.0532)"/><path id="eZKuGQaTN4E39" fill="#010101" stroke="none" stroke-width="1" d="M813.24987,310.18544L509.488,310.18544C508.717274,310.18544,508.005095,309.774263,507.619732,309.106795C507.234369,308.439327,507.234369,307.616973,507.619732,306.949505C508.005095,306.282037,508.717274,305.87086,509.488,305.87086L813.2499,305.87086C814.441338,305.87086,815.40719,306.836712,815.40719,308.02815C815.40719,309.219588,814.441338,310.18544,813.2499,310.18544Z" transform="matrix(1 0 0 1 -195.579666 -109.0532)"/><path id="eZKuGQaTN4E40" fill="#010101" stroke="none" stroke-width="1" d="M813.24987,454.62344L509.488,454.62344C508.717274,454.62344,508.005095,454.212263,507.619732,453.544795C507.234369,452.877327,507.234369,452.054973,507.619732,451.387505C508.005095,450.720037,508.717274,450.30886,509.488,450.30886L813.2499,450.30886C814.441338,450.30886,815.40719,451.274712,815.40719,452.46615C815.40719,453.657588,814.441338,454.62344,813.2499,454.62344Z" transform="matrix(1 0 0 1 -195.579666 -109.0532)"/><path id="eZKuGQaTN4E41" fill="#010101" stroke="none" stroke-width="1" d="M813.24987,620.62344L509.488,620.62344C508.717274,620.62344,508.005095,620.212263,507.619732,619.544795C507.234369,618.877327,507.234369,618.054973,507.619732,617.387505C508.005095,616.720037,508.717274,616.30886,509.488,616.30886L813.2499,616.30886C814.441338,616.30886,815.40719,617.274712,815.40719,618.46615C815.40719,619.657588,814.441338,620.62344,813.2499,620.62344Z" transform="matrix(1 0 0 1 -195.579666 -109.0532)"/></g><path id="eZKuGQaTN4E42" fill="#FFF" stroke="none" stroke-width="1" d="M740.48441,585.9937L582.25341,585.9937C580.051349,585.991281,578.266829,584.206761,578.26441,582.0047L578.26441,488.92762C578.266824,486.725557,580.051347,484.941034,582.25341,484.93862L740.48441,484.93862C742.686475,484.941028,744.471002,486.725555,744.47341,488.92762L744.47341,582.00468C744.471007,584.206751,742.686481,585.991286,740.48441,585.9937Z" transform="matrix(1 0 0 1 -195.579666 -109.0532)"/><path id="eZKuGQaTN4E43" fill="#2219AE" stroke="none" stroke-width="1" d="M687.64325,532.82035C686.016082,531.078214,683.751838,530.070623,681.368375,530.028026C678.984911,529.985429,676.686109,530.911469,674.99773,532.59435L630.46735,577.125C628.018169,579.568572,624.055045,579.57452,621.59854,577.13831L615.00341,570.55642C613.356709,568.909033,611.122892,567.983483,608.79362,567.983483C606.464348,567.983483,604.230531,568.909033,602.58383,570.55642L589.8195,583.33459L732.91833,583.33459L732.91833,581.51294Z" transform="matrix(1 0 0 1 -195.579666 -109.0532)"/><path id="eZKuGQaTN4E44" fill="#3F3D56" stroke="none" stroke-width="1" d="M740.48441,585.9937L582.25341,585.9937C580.051349,585.991281,578.266829,584.206761,578.26441,582.0047L578.26441,488.92762C578.266824,486.725557,580.051347,484.941034,582.25341,484.93862L740.48441,484.93862C742.686475,484.941028,744.471002,486.725555,744.47341,488.92762L744.47341,582.00468C744.471007,584.206751,742.686481,585.991286,740.48441,585.9937ZM582.25342,487.598C581.519413,487.598843,580.924593,488.193663,580.92375,488.92767L580.92375,582.00473C580.924588,582.738739,581.519411,583.333562,582.25342,583.3344L740.48442,583.3344C741.218433,583.333568,741.813262,582.738743,741.8141,582.00473L741.8141,488.92762C741.813257,488.193609,741.218431,487.598788,740.48442,487.59795Z" transform="matrix(1 0 0 1 -195.579666 -109.0532)"/><g id="eZKuGQaTN4E45" transform="matrix(1 0 0 1 0.000001 0)"><polygon id="eZKuGQaTN4E46" fill="#FFB6B6" stroke="none" stroke-width="1" points="203.799 669.082 216.058 669.082 221.891 621.794 203.796 621.794 203.799 669.082"/><path id="eZKuGQaTN4E47" fill="#2F2E41" stroke="none" stroke-width="1" d="M396.25093,774.13262L420.39493,774.13162L420.39593,774.13162C428.893359,774.132078,435.781809,781.020421,435.7824,789.51785L435.7824,790.01785L396.25164,790.01931Z" transform="matrix(1 0 0 1 -195.579666 -109.0532)"/><polygon id="eZKuGQaTN4E48" fill="#FFB6B6" stroke="none" stroke-width="1" points="134.799 669.082 147.058 669.082 152.891 621.794 134.796 621.794 134.799 669.082"/><path id="eZKuGQaTN4E49" fill="#2F2E41" stroke="none" stroke-width="1" d="M327.25093,774.13262L351.39493,774.13162L351.39593,774.13162C359.893359,774.132078,366.781809,781.020421,366.7824,789.51785L366.7824,790.01785L327.25164,790.01931Z" transform="matrix(1 0 0 1 -195.579666 -109.0532)"/></g><g id="eZKuGQaTN4E50" transform="matrix(1 0 0 1 0 0.000001)"><path id="eZKuGQaTN4E51" fill="#2F2E41" stroke="none" stroke-width="1" d="M406.76052,539.61811L334.86374,533.29227C334.86374,533.29227,327.76052,578.61811,328.76052,596.61811C329.76052,614.61811,330.76052,642.61811,330.76052,642.61811L322.76052,764.61811L353.76052,760.61811L357.76052,659.61811L370.76052,604.61811L385.76052,674.61811L395.76052,764.61811L422.76052,761.61811L413.76052,652.61811C413.76052,652.61811,421.76049,554.61811,406.76052,539.61811Z" transform="matrix(1 0 0 1 -195.579666 -109.0532)"/><path id="eZKuGQaTN4E52" fill="#E4E4E4" stroke="none" stroke-width="1" d="M399.66234,431.2756L385.37783,419.9047C385.37783,419.9047,369.90883,407.96857,360.83468,416.79334L356.76056,422.61811C356.76056,422.61811,333.66234,431.2756,333.66234,442.2756L334.76056,502.61811C334.76056,502.61811,326.76056,533.61811,338.76056,535.61811L408.66234,541.2756L407.76056,483.61811Z" transform="matrix(1 0 0 1 -195.579666 -109.0532)"/><circle id="eZKuGQaTN4E53" r="20" fill="#FFB8B8" stroke="none" stroke-width="1" transform="matrix(1 0 0 1 182.180862 277.564941)"/><path id="eZKuGQaTN4E54" fill="#2F2E41" stroke="none" stroke-width="1" d="M362.26052,404.11811C362.26052,404.11811,341.26052,389.11811,352.26052,371.11811C359.89169,358.63074,375.70465,359.61918,384.67452,361.39585C389.580251,362.301324,393.726098,365.5632,395.76052,370.11811C397.26052,373.61811,397.26052,377.11811,391.26052,377.11811C379.26052,377.11811,385.26052,386.11811,385.26052,386.11811C385.26052,386.11811,377.26052,388.11811,379.26052,395.11811C381.26052,402.11811,362.26052,404.11811,362.26052,404.11811Z" transform="matrix(1 0 0 1 -195.579666 -109.0532)"/><g id="eZKuGQaTN4E55"><path id="eZKuGQaTN4E56" fill="#E4E4E4" stroke="none" stroke-width="1" d="M446.32471,537.05427C445.074662,537.322307,443.769601,537.046599,442.73478,536.29586L405.75812,508.17944C396.662003,501.574756,390.274565,491.890907,387.78397,480.92924L379.57265,444.81365C377.348845,440.129085,377.796672,434.613452,380.747069,430.348993C383.697466,426.084534,388.701025,423.720818,393.86882,424.150186C399.036614,424.579555,403.581478,427.736605,405.78765,432.4295L421.76724,488.9612L453.04375,522.32257C454.268061,523.768009,454.459853,525.824024,453.52401,527.47097L449.28661,534.88709C448.831816,535.682217,448.145473,536.319838,447.31907,536.71496C447.002161,536.86689,446.668387,536.980785,446.32471,537.05427Z" transform="matrix(1 0 0 1 -195.579666 -109.0532)"/><path id="eZKuGQaTN4E57" fill="#FFB6B6" stroke="none" stroke-width="1" d="M471.81865,536.66284C471.064561,533.784011,469.074056,531.38706,466.382745,530.116962C463.691434,528.846864,460.575777,528.834087,457.87414,530.08207L433.082,504.34635L429.01,522.46409L453.17736,544.12552C455.628512,548.623911,461.05682,550.578038,465.812733,548.674107C470.568646,546.770175,473.148886,541.60999,471.81871,536.66284Z" transform="matrix(1 0 0 1 -195.579666 -109.0532)"/></g><path id="eZKuGQaTN4E58" fill="#E4E4E4" stroke="none" stroke-width="1" d="M336.85563,557.82806C335.642617,557.42425,334.658302,556.524071,334.148,555.35187L316.569,512.35436C312.08629,502.045791,311.500583,490.45988,314.92083,479.75179L326.18483,444.46887C326.65075,439.30645,329.837579,434.785625,334.543129,432.611814C339.248679,430.438003,344.756828,430.942032,348.9897,433.933763C353.222571,436.925494,355.535979,441.949625,355.05722,447.11087L340.11913,503.92665L350.12426,548.54837C350.445072,550.415269,349.566335,552.28391,347.92385,553.22756L340.50774,557.46497C339.7122,557.919046,338.797155,558.119859,337.88458,558.04064C337.534412,558.010618,337.189027,557.939261,336.85563,557.82806Z" transform="matrix(1 0 0 1 -195.579666 -109.929619)"/><path id="eZKuGQaTN4E59" fill="#FFB6B6" stroke="none" stroke-width="1" d="M359.01738,570.43562C359.829488,567.572617,359.331747,564.496948,357.658089,562.036221C355.984432,559.575494,353.306783,557.982483,350.34565,557.68584L342.05477,522.92609L329.34727,536.46689L339.16864,567.39939C338.996223,572.519331,342.680474,576.959063,347.744413,577.733686C352.808352,578.508308,357.651348,575.372975,359.01738,570.43562Z" transform="matrix(1 0 0 1 -195.579666 -109.929619)"/></g><path id="eZKuGQaTN4E61" fill="#CACACA" stroke="none" stroke-width="1" d="M954.23551,139.23028L376.67973,139.23028C376.217905,139.228685,375.844365,138.853853,375.844365,138.392025C375.844365,137.930197,376.217905,137.555365,376.67973,137.55377L954.23551,137.55377C954.697335,137.555365,955.070875,137.930197,955.070875,138.392025C955.070875,138.853853,954.697335,139.228685,954.23551,139.23028Z" transform="matrix(1 0 0 1 -195.579666 -109.0532)"/><circle id="eZKuGQaTN4E62" r="9.221" fill="#3F3D56" stroke="none" stroke-width="1" transform="matrix(1 0 0 1 199.967346 9.22077)"/><circle id="eZKuGQaTN4E63" r="9.221" fill="#3F3D56" stroke="none" stroke-width="1" transform="matrix(1 0 0 1 231.820923 9.22077)"/><circle id="eZKuGQaTN4E64" r="9.221" fill="#3F3D56" stroke="none" stroke-width="1" transform="matrix(1 0 0 1 263.6745 9.22077)"/><path id="eZKuGQaTN4E65" fill="#3F3D56" stroke="none" stroke-width="1" d="M935.15042,114.69325L912.51761,114.69325C911.593965,114.69006,910.846891,113.9404,910.846891,113.01675C910.846891,112.0931,911.593965,111.34344,912.51761,111.34025L935.15042,111.34025C936.074065,111.34344,936.821139,112.0931,936.821139,113.01675C936.821139,113.9404,936.074065,114.69006,935.15042,114.69325Z" transform="matrix(1 0 0 1 -195.579666 -109.0532)"/><path id="eZKuGQaTN4E66" fill="#3F3D56" stroke="none" stroke-width="1" d="M935.15042,120.98014L912.51761,120.98014C911.593965,120.97695,910.846891,120.22729,910.846891,119.30364C910.846891,118.37999,911.593965,117.63033,912.51761,117.62714L935.15042,117.62714C936.074065,117.63033,936.821139,118.37999,936.821139,119.30364C936.821139,120.22729,936.074065,120.97695,935.15042,120.98014Z" transform="matrix(1 0 0 1 -195.579666 -109.0532)"/><path id="eZKuGQaTN4E67" fill="#3F3D56" stroke="none" stroke-width="1" d="M935.15042,127.267L912.51761,127.267C911.593965,127.26381,910.846891,126.51415,910.846891,125.5905C910.846891,124.66685,911.593965,123.91719,912.51761,123.914L935.15042,123.914C936.074065,123.91719,936.821139,124.66685,936.821139,125.5905C936.821139,126.51415,936.074065,127.26381,935.15042,127.267Z" transform="matrix(1 0 0 1 -195.579666 -109.0532)"/><path id="eZKuGQaTN4E68" fill="#2219AE" stroke="none" stroke-width="1" d="M780.15534,271.01854L542.8788,271.01854C540.141754,271.077577,537.794687,269.07661,537.41999,266.36469C537.268766,264.90298,537.744191,263.445667,538.728301,262.354343C539.712412,261.263018,541.112979,260.639959,542.58249,260.63976L779.78687,260.63976C782.569296,260.566667,784.958395,262.60492,785.32445,265.36413C785.454699,266.815468,784.968878,268.254714,783.98569,269.330208C783.002503,270.405702,781.612511,271.018379,780.15534,271.01854Z" transform="matrix(1 0 0 1 -195.579666 -109.0532)"/><script><![CDATA[!function(t,n){"object"==typeof exports&&"undefined"!=typeof module?module.exports=n():"function"==typeof define&&define.amd?define(n):(t="undefined"!=typeof globalThis?globalThis:t||self).__SVGATOR_PLAYER__=n()}(this,(function(){"use strict";function t(n){return(t="function"==typeof Symbol&&"symbol"==typeof Symbol.iterator?function(t){return typeof t}:function(t){return t&&"function"==typeof Symbol&&t.constructor===Symbol&&t!==Symbol.prototype?"symbol":typeof t})(n)}function n(t,n){if(!(t instanceof n))throw new TypeError("Cannot call a class as a function")}function r(t,n){for(var r=0;r<n.length;r++){var e=n[r];e.enumerable=e.enumerable||!1,e.configurable=!0,"value"in e&&(e.writable=!0),Object.defineProperty(t,e.key,e)}}function e(t,n,e){return n&&r(t.prototype,n),e&&r(t,e),t}function i(t){return(i=Object.setPrototypeOf?Object.getPrototypeOf:function(t){return t.__proto__||Object.getPrototypeOf(t)})(t)}function o(t,n){return(o=Object.setPrototypeOf||function(t,n){return t.__proto__=n,t})(t,n)}function u(t,n){return!n||"object"!=typeof n&&"function"!=typeof n?function(t){if(void 0===t)throw new ReferenceError("this hasn't been initialised - super() hasn't been called");return t}(t):n}function a(t){var n=function(){if("undefined"==typeof Reflect||!Reflect.construct)return!1;if(Reflect.construct.sham)return!1;if("function"==typeof Proxy)return!0;try{return Boolean.prototype.valueOf.call(Reflect.construct(Boolean,[],(function(){}))),!0}catch(t){return!1}}();return function(){var r,e=i(t);if(n){var o=i(this).constructor;r=Reflect.construct(e,arguments,o)}else r=e.apply(this,arguments);return u(this,r)}}function l(t,n,r){return(l="undefined"!=typeof Reflect&&Reflect.get?Reflect.get:function(t,n,r){var e=function(t,n){for(;!Object.prototype.hasOwnProperty.call(t,n)&&null!==(t=i(t)););return t}(t,n);if(e){var o=Object.getOwnPropertyDescriptor(e,n);return o.get?o.get.call(r):o.value}})(t,n,r||t)}var f=s(Math.pow(10,-6));function s(t){var n=arguments.length>1&&void 0!==arguments[1]?arguments[1]:6;if(Number.isInteger(t))return t;var r=Math.pow(10,n);return Math.round((+t+Number.EPSILON)*r)/r}function c(t,n){var r=arguments.length>2&&void 0!==arguments[2]?arguments[2]:f;return Math.abs(t-n)<r}var h=Math.PI/180;function v(t){return t}function y(t,n,r){var e=1-r;return 3*r*e*(t*e+n*r)+r*r*r}function d(){var t=arguments.length>0&&void 0!==arguments[0]?arguments[0]:0,n=arguments.length>1&&void 0!==arguments[1]?arguments[1]:0,r=arguments.length>2&&void 0!==arguments[2]?arguments[2]:1,e=arguments.length>3&&void 0!==arguments[3]?arguments[3]:1;return t<0||t>1||r<0||r>1?null:c(t,n)&&c(r,e)?v:function(i){if(i<=0)return t>0?i*n/t:0===n&&r>0?i*e/r:0;if(i>=1)return r<1?1+(i-1)*(e-1)/(r-1):1===r&&t<1?1+(i-1)*(n-1)/(t-1):1;for(var o,u=0,a=1;u<a;){var l=y(t,r,o=(u+a)/2);if(c(i,l))break;l<i?u=o:a=o}return y(n,e,o)}}function g(){return 1}function p(t){return 1===t?1:0}function m(){var t=arguments.length>0&&void 0!==arguments[0]?arguments[0]:1,n=arguments.length>1&&void 0!==arguments[1]?arguments[1]:0;if(1===t){if(0===n)return p;if(1===n)return g}var r=1/t;return function(t){return t>=1?1:(t+=n*r)-t%r}}function b(t,n,r){return t>=.5?r:n}function w(t,n,r){return 0===t||n===r?n:t*(r-n)+n}function x(t,n,r){var e=w(t,n,r);return e<=0?0:e}function k(t,n,r){return 0===t?n:1===t?r:{x:w(t,n.x,r.x),y:w(t,n.y,r.y)}}function A(t,n,r){var e=function(t,n,r){return Math.round(w(t,n,r))}(t,n,r);return e<=0?0:e>=255?255:e}function _(t,n,r){return 0===t?n:1===t?r:{r:A(t,n.r,r.r),g:A(t,n.g,r.g),b:A(t,n.b,r.b),a:w(t,null==n.a?1:n.a,null==r.a?1:r.a)}}function S(t,n,r){if(0===t)return n;if(1===t)return r;var e=n.length;if(e!==r.length)return b(t,n,r);for(var i=[],o=0;o<e;o++)i.push(_(t,n[o],r[o]));return i}function O(t,n){for(var r=[],e=0;e<t;e++)r.push(n);return r}function M(t,n){if(--n<=0)return t;var r=(t=Object.assign([],t)).length;do{for(var e=0;e<r;e++)t.push(t[e])}while(--n>0);return t}var j,P=function(){function t(r){n(this,t),this.list=r,this.length=r.length}return e(t,[{key:"setAttribute",value:function(t,n){for(var r=this.list,e=0;e<this.length;e++)r[e].setAttribute(t,n)}},{key:"removeAttribute",value:function(t){for(var n=this.list,r=0;r<this.length;r++)n[r].removeAttribute(t)}},{key:"style",value:function(t,n){for(var r=this.list,e=0;e<this.length;e++)r[e].style[t]=n}}]),t}(),B=/-./g,E=function(t,n){return n.toUpperCase()};function F(t){return"function"==typeof t?t:b}function I(t){return t?"function"==typeof t?t:Array.isArray(t)?function(t){var n=arguments.length>1&&void 0!==arguments[1]?arguments[1]:v;if(!Array.isArray(t))return n;switch(t.length){case 1:return m(t[0])||n;case 2:return m(t[0],t[1])||n;case 4:return d(t[0],t[1],t[2],t[3])||n}return n}(t,null):function(t,n){var r=arguments.length>2&&void 0!==arguments[2]?arguments[2]:v;switch(t){case"linear":return v;case"steps":return m(n.steps||1,n.jump||0)||r;case"bezier":case"cubic-bezier":return d(n.x1||0,n.y1||0,n.x2||0,n.y2||0)||r}return r}(t.type,t.value,null):null}function R(t,n,r){var e=arguments.length>3&&void 0!==arguments[3]&&arguments[3],i=n.length-1;if(t<=n[0].t)return e?[0,0,n[0].v]:n[0].v;if(t>=n[i].t)return e?[i,1,n[i].v]:n[i].v;var o,u=n[0],a=null;for(o=1;o<=i;o++){if(!(t>n[o].t)){a=n[o];break}u=n[o]}return null==a?e?[i,1,n[i].v]:n[i].v:u.t===a.t?e?[o,1,a.v]:a.v:(t=(t-u.t)/(a.t-u.t),u.e&&(t=u.e(t)),e?[o,t,r(t,u.v,a.v)]:r(t,u.v,a.v))}function q(t,n){var r=arguments.length>2&&void 0!==arguments[2]?arguments[2]:null;return t&&t.length?"function"!=typeof n?null:("function"!=typeof r&&(r=null),function(e){var i=R(e,t,n);return null!=i&&r&&(i=r(i)),i}):null}function T(t,n){return t.t-n.t}function N(n,r,e,i,o){var u,a="@"===e[0],l="#"===e[0],f=j[e],s=b;switch(a?(u=e.substr(1),e=u.replace(B,E)):l&&(e=e.substr(1)),t(f)){case"function":if(s=f(i,o,R,I,e,a,r,n),l)return s;break;case"string":s=q(i,F(f));break;case"object":if((s=q(i,F(f.i),f.f))&&"function"==typeof f.u)return f.u(r,s,e,a,n)}return s?function(t,n,r){var e=arguments.length>3&&void 0!==arguments[3]&&arguments[3];if(e)return t instanceof P?function(e){return t.style(n,r(e))}:function(e){return t.style[n]=r(e)};if(Array.isArray(n)){var i=n.length;return function(e){var o=r(e);if(null==o)for(var u=0;u<i;u++)t[u].removeAttribute(n);else for(var a=0;a<i;a++)t[a].setAttribute(n,o)}}return function(e){var i=r(e);null==i?t.removeAttribute(n):t.setAttribute(n,i)}}(r,e,s,a):null}function C(n,r,e,i){if(!i||"object"!==t(i))return null;var o=null,u=null;return Array.isArray(i)?u=function(t){if(!t||!t.length)return null;for(var n=0;n<t.length;n++)t[n].e&&(t[n].e=I(t[n].e));return t.sort(T)}(i):(u=i.keys,o=i.data||null),u?N(n,r,e,u,o):null}function z(t,n,r){if(!r)return null;var e=[];for(var i in r)if(r.hasOwnProperty(i)){var o=C(t,n,i,r[i]);o&&e.push(o)}return e.length?e:null}function L(t,n){if(!n.duration||n.duration<0)return null;var r=function(t,n){if(!n)return null;var r=[];if(Array.isArray(n))for(var e=n.length,i=0;i<e;i++){var o=n[i];if(2===o.length){var u=null;if("string"==typeof o[0])u=t.getElementById(o[0]);else if(Array.isArray(o[0])){u=[];for(var a=0;a<o[0].length;a++)if("string"==typeof o[0][a]){var l=t.getElementById(o[0][a]);l&&u.push(l)}u=u.length?1===u.length?u[0]:new P(u):null}if(u){var f=z(t,u,o[1]);f&&(r=r.concat(f))}}}else for(var s in n)if(n.hasOwnProperty(s)){var c=t.getElementById(s);if(c){var h=z(t,c,n[s]);h&&(r=r.concat(h))}}return r.length?r:null}(t,n.elements);return r?function(t,n){var r=arguments.length>2&&void 0!==arguments[2]?arguments[2]:1/0,e=arguments.length>3&&void 0!==arguments[3]?arguments[3]:1,i=arguments.length>4&&void 0!==arguments[4]&&arguments[4],o=arguments.length>5&&void 0!==arguments[5]?arguments[5]:1,u=t.length,a=e>0?n:0;i&&r%2==0&&(a=n-a);var l=null;return function(f,s){var c=f%n,h=1+(f-c)/n;s*=e,i&&h%2==0&&(s=-s);var v=!1;if(h>r)c=a,v=!0,-1===o&&(c=e>0?0:n);else if(s<0&&(c=n-c),c===l)return!1;l=c;for(var y=0;y<u;y++)t[y](c);return v}}(r,n.duration,n.iterations||1/0,n.direction||1,!!n.alternate,n.fill||1):null}var D=function(){function t(r,e){var i=arguments.length>2&&void 0!==arguments[2]?arguments[2]:{};n(this,t),this._id=0,this._running=!1,this._rollingBack=!1,this._animations=r,this.duration=e.duration,this.alternate=e.alternate,this.fill=e.fill,this.iterations=e.iterations,this.direction=i.direction||1,this.speed=i.speed||1,this.fps=i.fps||100,this.offset=i.offset||0,this.rollbackStartOffset=0}return e(t,[{key:"_rollback",value:function(){var t=this,n=1/0,r=null;this.rollbackStartOffset=this.offset,this._rollingBack||(this._rollingBack=!0,this._running=!0);this._id=window.requestAnimationFrame((function e(i){if(t._rollingBack){null==r&&(r=i);var o=i-r,u=t.rollbackStartOffset-o,a=Math.round(u*t.speed);if(a>t.duration&&n!=1/0){var l=!!t.alternate&&a/t.duration%2>1,f=a%t.duration;a=(f+=l?t.duration:0)||t.duration}var s=t.fps?1e3/t.fps:0,c=Math.max(0,a);if(c<n-s){t.offset=c,n=c;for(var h=t._animations,v=h.length,y=0;y<v;y++)h[y](c,t.direction)}var d=!1;if(t.iterations>0&&-1===t.fill){var g=t.iterations*t.duration,p=g==a;a=p?0:a,t.offset=p?0:t.offset,d=a>g}a>0&&t.offset>=a&&!d?t._id=window.requestAnimationFrame(e):t.stop()}}))}},{key:"_start",value:function(){var t=this,n=arguments.length>0&&void 0!==arguments[0]?arguments[0]:0,r=-1/0,e=null,i={},o=function o(u){t._running=!0,null==e&&(e=u);var a=Math.round((u-e+n)*t.speed),l=t.fps?1e3/t.fps:0;if(a>r+l&&!t._rollingBack){t.offset=a,r=a;for(var f=t._animations,s=f.length,c=0,h=0;h<s;h++)i[h]?c++:(i[h]=f[h](a,t.direction),i[h]&&c++);if(c===s)return void t._stop()}t._id=window.requestAnimationFrame(o)};this._id=window.requestAnimationFrame(o)}},{key:"_stop",value:function(){this._id&&window.cancelAnimationFrame(this._id),this._running=!1,this._rollingBack=!1}},{key:"play",value:function(){!this._rollingBack&&this._running||(this._rollingBack=!1,this.rollbackStartOffset>this.duration&&(this.offset=this.rollbackStartOffset-(this.rollbackStartOffset-this.offset)%this.duration,this.rollbackStartOffset=0),this._start(this.offset))}},{key:"stop",value:function(){this._stop(),this.offset=0,this.rollbackStartOffset=0;var t=this.direction,n=this._animations;window.requestAnimationFrame((function(){for(var r=0;r<n.length;r++)n[r](0,t)}))}},{key:"reachedToEnd",value:function(){return this.iterations>0&&this.offset>=this.iterations*this.duration}},{key:"restart",value:function(){this._stop(),this.offset=0,this._start()}},{key:"pause",value:function(){this._stop()}},{key:"reverse",value:function(){this.direction=-this.direction}}],[{key:"build",value:function(n,r){return(n=function(t,n){if(j=n,!t||!t.root||!Array.isArray(t.animations))return null;for(var r=document.getElementsByTagName("svg"),e=!1,i=0;i<r.length;i++)if(r[i].id===t.root&&!r[i].svgatorAnimation){(e=r[i]).svgatorAnimation=!0;break}if(!e)return null;var o=t.animations.map((function(t){return L(e,t)})).filter((function(t){return!!t}));return o.length?{element:e,animations:o,animationSettings:t.animationSettings,options:t.options||void 0}:null}(n,r))?{el:n.element,options:n.options||{},player:new t(n.animations,n.animationSettings,n.options)}:null}}]),t}();function Q(t){return s(t)+""}function U(t){var n=arguments.length>1&&void 0!==arguments[1]?arguments[1]:" ";return t&&t.length?t.map(Q).join(n):""}function V(t){return t?null==t.a||t.a>=1?"rgb("+t.r+","+t.g+","+t.b+")":"rgba("+t.r+","+t.g+","+t.b+","+t.a+")":"transparent"}!function(){for(var t=0,n=["ms","moz","webkit","o"],r=0;r<n.length&&!window.requestAnimationFrame;++r)window.requestAnimationFrame=window[n[r]+"RequestAnimationFrame"],window.cancelAnimationFrame=window[n[r]+"CancelAnimationFrame"]||window[n[r]+"CancelRequestAnimationFrame"];window.requestAnimationFrame||(window.requestAnimationFrame=function(n){var r=Date.now(),e=Math.max(0,16-(r-t)),i=window.setTimeout((function(){n(r+e)}),e);return t=r+e,i},window.cancelAnimationFrame=window.clearTimeout)}();var G={f:null,i:function(t,n,r){return 0===t?n:1===t?r:{x:x(t,n.x,r.x),y:x(t,n.y,r.y)}},u:function(t,n){return function(r){var e=n(r);t.setAttribute("rx",Q(e.x)),t.setAttribute("ry",Q(e.y))}}},H={f:null,i:function(t,n,r){return 0===t?n:1===t?r:{width:x(t,n.width,r.width),height:x(t,n.height,r.height)}},u:function(t,n){return function(r){var e=n(r);t.setAttribute("width",Q(e.width)),t.setAttribute("height",Q(e.height))}}},Y=Math.sin,Z=Math.cos,J=Math.acos,K=Math.asin,W=Math.tan,X=Math.atan2,$=Math.PI/180,tt=180/Math.PI,nt=Math.sqrt,rt=function(){function t(){var r=arguments.length>0&&void 0!==arguments[0]?arguments[0]:1,e=arguments.length>1&&void 0!==arguments[1]?arguments[1]:0,i=arguments.length>2&&void 0!==arguments[2]?arguments[2]:0,o=arguments.length>3&&void 0!==arguments[3]?arguments[3]:1,u=arguments.length>4&&void 0!==arguments[4]?arguments[4]:0,a=arguments.length>5&&void 0!==arguments[5]?arguments[5]:0;n(this,t),this.m=[r,e,i,o,u,a],this.i=null,this.w=null,this.s=null}return e(t,[{key:"determinant",get:function(){var t=this.m;return t[0]*t[3]-t[1]*t[2]}},{key:"isIdentity",get:function(){if(null===this.i){var t=this.m;this.i=1===t[0]&&0===t[1]&&0===t[2]&&1===t[3]&&0===t[4]&&0===t[5]}return this.i}},{key:"point",value:function(t,n){var r=this.m;return{x:r[0]*t+r[2]*n+r[4],y:r[1]*t+r[3]*n+r[5]}}},{key:"translateSelf",value:function(){var t=arguments.length>0&&void 0!==arguments[0]?arguments[0]:0,n=arguments.length>1&&void 0!==arguments[1]?arguments[1]:0;if(!t&&!n)return this;var r=this.m;return r[4]+=r[0]*t+r[2]*n,r[5]+=r[1]*t+r[3]*n,this.w=this.s=this.i=null,this}},{key:"rotateSelf",value:function(){var t=arguments.length>0&&void 0!==arguments[0]?arguments[0]:0;if(t%=360){var n=Y(t*=$),r=Z(t),e=this.m,i=e[0],o=e[1];e[0]=i*r+e[2]*n,e[1]=o*r+e[3]*n,e[2]=e[2]*r-i*n,e[3]=e[3]*r-o*n,this.w=this.s=this.i=null}return this}},{key:"scaleSelf",value:function(){var t=arguments.length>0&&void 0!==arguments[0]?arguments[0]:1,n=arguments.length>1&&void 0!==arguments[1]?arguments[1]:1;if(1!==t||1!==n){var r=this.m;r[0]*=t,r[1]*=t,r[2]*=n,r[3]*=n,this.w=this.s=this.i=null}return this}},{key:"skewSelf",value:function(t,n){if(n%=360,(t%=360)||n){var r=this.m,e=r[0],i=r[1],o=r[2],u=r[3];t&&(t=W(t*$),r[2]+=e*t,r[3]+=i*t),n&&(n=W(n*$),r[0]+=o*n,r[1]+=u*n),this.w=this.s=this.i=null}return this}},{key:"resetSelf",value:function(){var t=arguments.length>0&&void 0!==arguments[0]?arguments[0]:1,n=arguments.length>1&&void 0!==arguments[1]?arguments[1]:0,r=arguments.length>2&&void 0!==arguments[2]?arguments[2]:0,e=arguments.length>3&&void 0!==arguments[3]?arguments[3]:1,i=arguments.length>4&&void 0!==arguments[4]?arguments[4]:0,o=arguments.length>5&&void 0!==arguments[5]?arguments[5]:0,u=this.m;return u[0]=t,u[1]=n,u[2]=r,u[3]=e,u[4]=i,u[5]=o,this.w=this.s=this.i=null,this}},{key:"recomposeSelf",value:function(){var t=arguments.length>0&&void 0!==arguments[0]?arguments[0]:null,n=arguments.length>1&&void 0!==arguments[1]?arguments[1]:null,r=arguments.length>2&&void 0!==arguments[2]?arguments[2]:null,e=arguments.length>3&&void 0!==arguments[3]?arguments[3]:null,i=arguments.length>4&&void 0!==arguments[4]?arguments[4]:null;return this.isIdentity||this.resetSelf(),t&&(t.x||t.y)&&this.translateSelf(t.x,t.y),n&&this.rotateSelf(n),r&&(r.x&&this.skewSelf(r.x,0),r.y&&this.skewSelf(0,r.y)),!e||1===e.x&&1===e.y||this.scaleSelf(e.x,e.y),i&&(i.x||i.y)&&this.translateSelf(i.x,i.y),this}},{key:"decompose",value:function(){var t=arguments.length>0&&void 0!==arguments[0]?arguments[0]:0,n=arguments.length>1&&void 0!==arguments[1]?arguments[1]:0,r=this.m,e=r[0]*r[0]+r[1]*r[1],i=[[r[0],r[1]],[r[2],r[3]]],o=nt(e);if(0===o)return{origin:{x:s(r[4]),y:s(r[5])},translate:{x:s(t),y:s(n)},scale:{x:0,y:0},skew:{x:0,y:0},rotate:0};i[0][0]/=o,i[0][1]/=o;var u=r[0]*r[3]-r[1]*r[2]<0;u&&(o=-o);var a=i[0][0]*i[1][0]+i[0][1]*i[1][1];i[1][0]-=i[0][0]*a,i[1][1]-=i[0][1]*a;var l=nt(i[1][0]*i[1][0]+i[1][1]*i[1][1]);if(0===l)return{origin:{x:s(r[4]),y:s(r[5])},translate:{x:s(t),y:s(n)},scale:{x:s(o),y:0},skew:{x:0,y:0},rotate:0};i[1][0]/=l,i[1][1]/=l,a/=l;var f=0;return i[1][1]<0?(f=J(i[1][1])*tt,i[0][1]<0&&(f=360-f)):f=K(i[0][1])*tt,u&&(f=-f),a=X(a,nt(i[0][0]*i[0][0]+i[0][1]*i[0][1]))*tt,u&&(a=-a),{origin:{x:s(r[4]),y:s(r[5])},translate:{x:s(t),y:s(n)},scale:{x:s(o),y:s(l)},skew:{x:s(a),y:0},rotate:s(f)}}},{key:"toString",value:function(){return null===this.s&&(this.s="matrix("+this.m.map((function(t){return s(t)})).join(" ")+")"),this.s}}]),t}();Object.freeze({M:2,L:2,Z:0,H:1,V:1,C:6,Q:4,T:2,S:4,A:7});var et={},it=null;function ot(n){var r=function(){if(it)return it;if("object"!==("undefined"==typeof document?"undefined":t(document))||!document.createElementNS)return{};var n=document.createElementNS("http://www.w3.org/2000/svg","svg");return n&&n.style?(n.style.position="absolute",n.style.opacity="0.01",n.style.zIndex="-9999",n.style.left="-9999px",n.style.width="1px",n.style.height="1px",it={svg:n}):{}}().svg;if(!r)return function(t){return null};var e=document.createElementNS(r.namespaceURI,"path");e.setAttributeNS(null,"d",n),e.setAttributeNS(null,"fill","none"),e.setAttributeNS(null,"stroke","none"),r.appendChild(e);var i=e.getTotalLength();return function(t){var n=e.getPointAtLength(i*t);return{x:n.x,y:n.y}}}function ut(t){return et[t]?et[t]:et[t]=ot(t)}function at(t,n,r,e){if(!t||!e)return!1;var i=["M",t.x,t.y];if(n&&r&&(i.push("C"),i.push(n.x),i.push(n.y),i.push(r.x),i.push(r.y)),n?!r:r){var o=n||r;i.push("Q"),i.push(o.x),i.push(o.y)}return n||r||i.push("L"),i.push(e.x),i.push(e.y),i.join(" ")}function lt(t,n,r,e){var i=arguments.length>4&&void 0!==arguments[4]?arguments[4]:1,o=at(t,n,r,e),u=ut(o);try{return u(i)}catch(t){return null}}function ft(t,n,r,e){var i=1-e;return i*i*t+2*i*e*n+e*e*r}function st(t,n,r,e){return 2*(1-e)*(n-t)+2*e*(r-n)}function ct(t,n,r,e){var i=arguments.length>4&&void 0!==arguments[4]&&arguments[4],o=lt(t,n,null,r,e);return o||(o={x:ft(t.x,n.x,r.x,e),y:ft(t.y,n.y,r.y,e)}),i&&(o.a=ht(t,n,r,e)),o}function ht(t,n,r,e){return Math.atan2(st(t.y,n.y,r.y,e),st(t.x,n.x,r.x,e))}function vt(t,n,r,e,i){var o=i*i;return i*o*(e-t+3*(n-r))+3*o*(t+r-2*n)+3*i*(n-t)+t}function yt(t,n,r,e,i){var o=1-i;return 3*(o*o*(n-t)+2*o*i*(r-n)+i*i*(e-r))}function dt(t,n,r,e,i){var o=arguments.length>5&&void 0!==arguments[5]&&arguments[5],u=lt(t,n,r,e,i);return u||(u={x:vt(t.x,n.x,r.x,e.x,i),y:vt(t.y,n.y,r.y,e.y,i)}),o&&(u.a=gt(t,n,r,e,i)),u}function gt(t,n,r,e,i){return Math.atan2(yt(t.y,n.y,r.y,e.y,i),yt(t.x,n.x,r.x,e.x,i))}function pt(t,n,r){return t+(n-t)*r}function mt(t,n,r){var e=arguments.length>3&&void 0!==arguments[3]&&arguments[3],i={x:pt(t.x,n.x,r),y:pt(t.y,n.y,r)};return e&&(i.a=bt(t,n)),i}function bt(t,n){return Math.atan2(n.y-t.y,n.x-t.x)}function wt(t,n,r){var e=arguments.length>3&&void 0!==arguments[3]&&arguments[3];if(kt(n)){if(At(r))return ct(n,r.start,r,t,e)}else if(kt(r)){if(n.end)return ct(n,n.end,r,t,e)}else{if(n.end)return r.start?dt(n,n.end,r.start,r,t,e):ct(n,n.end,r,t,e);if(r.start)return ct(n,r.start,r,t,e)}return mt(n,r,t,e)}function xt(t,n,r){var e=wt(t,n,r,!0);return e.a=function(t){var n=arguments.length>1&&void 0!==arguments[1]&&arguments[1];return n?t+Math.PI:t}(e.a)/h,e}function kt(t){return!t.type||"corner"===t.type}function At(t){return null!=t.start&&!kt(t)}var _t=new rt;var St={f:Q,i:w},Ot={f:Q,i:function(t,n,r){var e=w(t,n,r);return e<=0?0:e>=1?1:e}};function Mt(t,n,r,e,i,o,u,a){return n=function(t,n,r){for(var e,i,o,u=t.length-1,a={},l=0;l<=u;l++)(e=t[l]).e&&(e.e=n(e.e)),e.v&&"g"===(i=e.v).t&&i.r&&(o=r.getElementById(i.r))&&(a[i.r]=o.querySelectorAll("stop"));return a}(t,e,a),function(e){var i,o=r(e,t,jt);return o?"c"===o.t?V(o.v):"g"===o.t?(n[o.r]&&function(t,n){for(var r=0,e=t.length;r<e;r++)t[r].setAttribute("stop-color",V(n[r]))}(n[o.r],o.v),(i=o.r)?"url(#"+i+")":"none"):"none":"none"}}function jt(t,n,r){if(0===t)return n;if(1===t)return r;if(n&&r){var e=n.t;if(e===r.t)switch(n.t){case"c":return{t:e,v:_(t,n.v,r.v)};case"g":if(n.r===r.r)return{t:e,v:S(t,n.v,r.v),r:n.r}}}return b(t,n,r)}var Pt={fill:Mt,"fill-opacity":Ot,stroke:Mt,"stroke-opacity":Ot,"stroke-width":St,"stroke-dashoffset":{f:Q,i:w},"stroke-dasharray":{f:function(t){var n=arguments.length>1&&void 0!==arguments[1]?arguments[1]:" ";return t&&t.length>0&&(t=t.map((function(t){return s(t,4)}))),U(t,n)},i:function(t,n,r){var e,i,o,u=n.length,a=r.length;if(u!==a)if(0===u)n=O(u=a,0);else if(0===a)a=u,r=O(u,0);else{var l=(o=(e=u)*(i=a)/function(t,n){for(var r;n;)r=n,n=t%n,t=r;return t||1}(e,i))<0?-o:o;n=M(n,Math.floor(l/u)),r=M(r,Math.floor(l/a)),u=a=l}for(var f=[],c=0;c<u;c++)f.push(s(x(t,n[c],r[c])));return f}},opacity:Ot,transform:function(n,r,e,i){if(!(n=function(n,r){if(!n||"object"!==t(n))return null;var e=!1;for(var i in n)n.hasOwnProperty(i)&&(n[i]&&n[i].length?(n[i].forEach((function(t){t.e&&(t.e=r(t.e))})),e=!0):delete n[i]);return e?n:null}(n,i)))return null;var o=function(t,i,o){var u=arguments.length>3&&void 0!==arguments[3]?arguments[3]:null;return n[t]?e(i,n[t],o):r&&r[t]?r[t]:u};return r&&r.a&&n.o?function(t){var r=e(t,n.o,xt);return _t.recomposeSelf(r,o("r",t,w,0)+r.a,o("k",t,k),o("s",t,k),o("t",t,k)).toString()}:function(t){return _t.recomposeSelf(o("o",t,wt,null),o("r",t,w,0),o("k",t,k),o("s",t,k),o("t",t,k)).toString()}},r:St,"#size":H,"#radius":G,_:function(t,n){if(Array.isArray(t))for(var r=0;r<t.length;r++)this[t[r]]=n;else this[t]=n}};return function(t){!function(t,n){if("function"!=typeof n&&null!==n)throw new TypeError("Super expression must either be null or a function");t.prototype=Object.create(n&&n.prototype,{constructor:{value:t,writable:!0,configurable:!0}}),n&&o(t,n)}(u,t);var r=a(u);function u(){return n(this,u),r.apply(this,arguments)}return e(u,null,[{key:"build",value:function(t){var n=l(i(u),"build",this).call(this,t,Pt);if(!n)return null;n.el,n.options;var r=n.player;return function(t,n,r){t.play()}(r),r}}]),u}(D)}));
__SVGATOR_PLAYER__.build({"root":"eZKuGQaTN4E1","animations":[{"duration":3000,"direction":1,"iterations":0,"fill":1,"alternate":false,"speed":1,"elements":{"eZKuGQaTN4E2":{"transform":{"data":{"t":{"x":-604.580749,"y":-337.673133}},"keys":{"o":[{"t":0,"v":{"x":460.58075,"y":337.673134,"type":"corner"}},{"t":1500,"v":{"x":586.58075,"y":337.673134,"type":"corner"}},{"t":3000,"v":{"x":478.58075,"y":337.673134,"type":"corner"}}],"r":[{"t":0,"v":-20},{"t":1500,"v":0},{"t":3000,"v":-20}]}}},"eZKuGQaTN4E10":{"transform":{"data":{"t":{"x":-305.957283,"y":-279.323425}},"keys":{"o":[{"t":0,"v":{"x":440.957283,"y":279.323426,"type":"corner"}},{"t":1800,"v":{"x":255.957283,"y":279.323426,"type":"corner"}},{"t":3000,"v":{"x":431.957283,"y":279.323426,"type":"corner"}}],"r":[{"t":0,"v":25},{"t":1800,"v":0},{"t":3000,"v":25}]}}},"eZKuGQaTN4E21":{"transform":{"data":{"o":{"x":55.053932,"y":609.293793,"type":"corner"},"t":{"x":-55.053932,"y":-609.293792}},"keys":{"r":[{"t":0,"v":0},{"t":1500,"v":6},{"t":3000,"v":0}]}}},"eZKuGQaTN4E27":{"transform":{"data":{"o":{"x":97.575691,"y":630.421112,"type":"corner"},"t":{"x":-97.575691,"y":-630.421112}},"keys":{"r":[{"t":0,"v":0},{"t":1480,"v":-6.54629},{"t":3000,"v":0}]}}},"eZKuGQaTN4E35":{"opacity":[{"t":0,"v":0.04},{"t":1500,"v":1},{"t":3000,"v":0}]},"eZKuGQaTN4E55":{"transform":{"data":{"o":{"x":229.589867,"y":377.696884,"type":"corner"},"t":{"x":-229.589867,"y":-377.696884}},"keys":{"r":[{"t":0,"v":0},{"t":1500,"v":-35.257615},{"t":3000,"v":0}]}}}}}],"options":{"start":"load","hover":null,"click":null,"scroll":null,"font":"embed","exportedIds":"unique","svgFormat":"animated","title":"undraw_Online_articles_re_yrkj"},"animationSettings":{"duration":3000,"direction":1,"iterations":0,"fill":1,"alternate":false,"speed":1}})]]></script></svg>